<svg width="283" height="216" viewBox="0 0 283 216" fill="none" xmlns="http://www.w3.org/2000/svg">
<line x1="118.5" y1="75.6902" x2="118.5" y2="3.05176e-05" stroke="white" stroke-width="5"/>
<line x1="158.5" y1="75.6902" x2="158.5" y2="3.05176e-05" stroke="white" stroke-width="5"/>
<line x1="98.5" y1="76" x2="98.5" y2="38" stroke="white" stroke-width="5"/>
<line x1="178.5" y1="76" x2="178.5" y2="38" stroke="white" stroke-width="5"/>
<line x1="138.5" y1="76" x2="138.5" y2="22" stroke="white" stroke-width="5"/>
<path d="M38.21 128C37.23 128 36.2967 127.673 35.41 127.02C34.57 126.367 34.15 125.433 34.15 124.22V103.64C34.15 102.567 34.5 101.703 35.2 101.05C35.9467 100.35 36.81 100 37.79 100H44.09C46.89 100 49.34 100.583 51.44 101.75C53.5867 102.87 55.2433 104.48 56.41 106.58C57.6233 108.68 58.23 111.2 58.23 114.14C58.23 116.707 57.67 119.04 56.55 121.14C55.4767 123.24 53.96 124.92 52 126.18C50.0867 127.393 47.87 128 45.35 128H38.21ZM41.08 123.66H44.16C47.1933 123.66 49.5033 122.867 51.09 121.28C52.6767 119.647 53.4467 117.267 53.4 114.14C53.3533 110.967 52.5367 108.54 50.95 106.86C49.3633 105.18 47.0767 104.34 44.09 104.34H41.15C39.75 104.34 39.05 105.04 39.05 106.44V121.56C39.05 122.96 39.7267 123.66 41.08 123.66ZM71.8144 128.7C69.8077 128.7 68.011 128.233 66.4244 127.3C64.8377 126.367 63.601 125.083 62.7144 123.45C61.8277 121.77 61.3844 119.903 61.3844 117.85C61.3844 115.843 61.8277 114.047 62.7144 112.46C63.601 110.873 64.8377 109.637 66.4244 108.75C68.011 107.817 69.8077 107.35 71.8144 107.35C73.121 107.35 74.2877 107.583 75.3144 108.05C76.341 108.47 77.2277 109.03 77.9744 109.73C78.0677 109.077 78.3477 108.587 78.8144 108.26C79.281 107.887 79.7944 107.7 80.3544 107.7C80.961 107.7 81.4977 107.91 81.9644 108.33C82.4777 108.703 82.7344 109.287 82.7344 110.08V126.53C82.7344 127.23 82.4777 127.767 81.9644 128.14C81.4977 128.513 80.961 128.7 80.3544 128.7C79.7477 128.7 79.1877 128.513 78.6744 128.14C78.2077 127.767 77.9744 127.23 77.9744 126.53V126.25C77.2277 126.997 76.341 127.58 75.3144 128C74.2877 128.467 73.121 128.7 71.8144 128.7ZM72.2344 124.36C74.0077 124.36 75.4077 123.777 76.4344 122.61C77.461 121.397 77.9744 119.81 77.9744 117.85C77.9744 115.983 77.461 114.49 76.4344 113.37C75.4077 112.25 74.0077 111.69 72.2344 111.69C70.4144 111.69 68.9444 112.25 67.8244 113.37C66.7044 114.49 66.1444 115.983 66.1444 117.85C66.1444 119.81 66.7044 121.397 67.8244 122.61C68.9444 123.777 70.4144 124.36 72.2344 124.36ZM90.459 128.7C89.8523 128.7 89.2923 128.513 88.779 128.14C88.3123 127.767 88.079 127.23 88.079 126.53V109.73C88.079 108.937 88.3123 108.353 88.779 107.98C89.2923 107.56 89.8523 107.35 90.459 107.35C91.0657 107.35 91.6023 107.56 92.069 107.98C92.5823 108.353 92.839 108.937 92.839 109.73V126.53C92.839 127.23 92.5823 127.767 92.069 128.14C91.6023 128.513 91.0657 128.7 90.459 128.7ZM90.529 103.5C89.6423 103.5 88.8723 103.22 88.219 102.66C87.6123 102.053 87.309 101.33 87.309 100.49C87.309 99.6967 87.6123 99.02 88.219 98.46C88.8723 97.8533 89.6423 97.55 90.529 97.55C91.369 97.55 92.0923 97.8533 92.699 98.46C93.3057 99.02 93.609 99.6967 93.609 100.49C93.609 101.33 93.3057 102.053 92.699 102.66C92.0923 103.22 91.369 103.5 90.529 103.5ZM100.916 128.7C100.31 128.7 99.7497 128.513 99.2363 128.14C98.7697 127.767 98.5363 127.23 98.5363 126.53V99.93C98.5363 99.1367 98.7697 98.5533 99.2363 98.18C99.7497 97.76 100.31 97.55 100.916 97.55C101.523 97.55 102.06 97.76 102.526 98.18C103.04 98.5533 103.296 99.1367 103.296 99.93V126.53C103.296 127.23 103.04 127.767 102.526 128.14C102.06 128.513 101.523 128.7 100.916 128.7ZM106.964 109.73C106.964 108.983 107.22 108.4 107.734 107.98C108.247 107.56 108.807 107.35 109.414 107.35C110.394 107.35 111.094 107.84 111.514 108.82L116.974 122.19C117.114 122.563 117.37 122.75 117.744 122.75C118.117 122.75 118.374 122.587 118.514 122.26L123.204 108.89C123.577 107.863 124.3 107.35 125.374 107.35C126.027 107.35 126.61 107.56 127.124 107.98C127.684 108.4 127.964 108.913 127.964 109.52C127.964 109.753 127.894 110.08 127.754 110.5L117.044 136.61C116.67 137.637 115.947 138.15 114.874 138.15C114.267 138.15 113.684 137.94 113.124 137.52C112.61 137.1 112.354 136.587 112.354 135.98C112.354 135.513 112.424 135.187 112.564 135L115.994 128C115.014 127.907 114.337 127.44 113.964 126.6L107.104 110.57C107.01 110.197 106.964 109.917 106.964 109.73ZM135.686 128C134.706 128 133.819 127.673 133.026 127.02C132.232 126.32 131.836 125.363 131.836 124.15V103.64C131.836 102.567 132.186 101.703 132.886 101.05C133.632 100.35 134.496 100 135.476 100H142.056C144.249 100 146.186 100.607 147.866 101.82C149.546 102.987 150.386 104.667 150.386 106.86C150.386 108.027 150.129 109.123 149.616 110.15C149.149 111.13 148.519 111.877 147.726 112.39C149.079 112.857 150.152 113.72 150.946 114.98C151.739 116.193 152.136 117.64 152.136 119.32C152.136 122.12 151.296 124.267 149.616 125.76C147.936 127.253 145.836 128 143.316 128H135.686ZM138.416 123.73H143.316C144.809 123.73 145.882 123.287 146.536 122.4C147.236 121.467 147.586 120.463 147.586 119.39C147.586 118.41 147.259 117.477 146.606 116.59C145.952 115.703 144.949 115.26 143.596 115.26H138.136C137.109 115.26 136.596 115.797 136.596 116.87V121.91C136.596 123.123 137.202 123.73 138.416 123.73ZM138.136 111.34H142.196C143.362 111.34 144.249 110.943 144.856 110.15C145.462 109.357 145.766 108.517 145.766 107.63C145.766 106.79 145.462 106.02 144.856 105.32C144.296 104.573 143.409 104.2 142.196 104.2H138.486C137.226 104.2 136.596 104.807 136.596 106.02V109.73C136.596 110.803 137.109 111.34 138.136 111.34ZM166.16 128.7C164.107 128.7 162.24 128.233 160.56 127.3C158.927 126.367 157.643 125.083 156.71 123.45C155.777 121.77 155.31 119.903 155.31 117.85C155.31 115.843 155.777 114.047 156.71 112.46C157.643 110.873 158.927 109.637 160.56 108.75C162.24 107.817 164.107 107.35 166.16 107.35C168.213 107.35 170.057 107.817 171.69 108.75C173.323 109.637 174.607 110.873 175.54 112.46C176.52 114.047 177.01 115.843 177.01 117.85C177.01 119.903 176.52 121.77 175.54 123.45C174.607 125.083 173.323 126.367 171.69 127.3C170.057 128.233 168.213 128.7 166.16 128.7ZM166.16 124.36C167.98 124.36 169.45 123.777 170.57 122.61C171.69 121.397 172.25 119.81 172.25 117.85C172.25 115.983 171.69 114.49 170.57 113.37C169.45 112.25 167.98 111.69 166.16 111.69C164.293 111.69 162.8 112.25 161.68 113.37C160.607 114.49 160.07 115.983 160.07 117.85C160.07 119.81 160.607 121.397 161.68 122.61C162.8 123.777 164.293 124.36 166.16 124.36ZM191.316 128.7C189.263 128.7 187.396 128.233 185.716 127.3C184.083 126.367 182.8 125.083 181.866 123.45C180.933 121.77 180.466 119.903 180.466 117.85C180.466 115.843 180.933 114.047 181.866 112.46C182.8 110.873 184.083 109.637 185.716 108.75C187.396 107.817 189.263 107.35 191.316 107.35C193.37 107.35 195.213 107.817 196.846 108.75C198.48 109.637 199.763 110.873 200.696 112.46C201.676 114.047 202.166 115.843 202.166 117.85C202.166 119.903 201.676 121.77 200.696 123.45C199.763 125.083 198.48 126.367 196.846 127.3C195.213 128.233 193.37 128.7 191.316 128.7ZM191.316 124.36C193.136 124.36 194.606 123.777 195.726 122.61C196.846 121.397 197.406 119.81 197.406 117.85C197.406 115.983 196.846 114.49 195.726 113.37C194.606 112.25 193.136 111.69 191.316 111.69C189.45 111.69 187.956 112.25 186.836 113.37C185.763 114.49 185.226 115.983 185.226 117.85C185.226 119.81 185.763 121.397 186.836 122.61C187.956 123.777 189.45 124.36 191.316 124.36ZM213.619 128.7C212.266 128.7 210.889 128.513 209.489 128.14C208.089 127.813 206.852 127.277 205.779 126.53C205.219 126.017 204.939 125.457 204.939 124.85C204.939 124.243 205.172 123.707 205.639 123.24C206.152 122.773 206.712 122.54 207.319 122.54C207.646 122.54 207.972 122.633 208.299 122.82C209.139 123.333 210.096 123.753 211.169 124.08C212.289 124.36 213.339 124.5 214.319 124.5C215.252 124.5 216.046 124.337 216.699 124.01C217.399 123.683 217.749 123.147 217.749 122.4C217.749 121.653 217.422 121.093 216.769 120.72C216.116 120.347 214.996 120.067 213.409 119.88C212.756 119.787 211.962 119.67 211.029 119.53C210.142 119.39 209.256 119.133 208.369 118.76C207.482 118.387 206.736 117.827 206.129 117.08C205.522 116.333 205.219 115.33 205.219 114.07C205.219 112.017 205.966 110.383 207.459 109.17C208.999 107.957 211.052 107.35 213.619 107.35C215.112 107.35 216.512 107.537 217.819 107.91C219.172 108.283 220.176 108.75 220.829 109.31C221.342 109.73 221.599 110.22 221.599 110.78C221.599 111.387 221.389 111.923 220.969 112.39C220.549 112.857 220.036 113.09 219.429 113.09C219.102 113.09 218.799 113.02 218.519 112.88C217.772 112.46 216.932 112.157 215.999 111.97C215.112 111.737 214.249 111.62 213.409 111.62C212.429 111.62 211.589 111.783 210.889 112.11C210.236 112.39 209.909 112.857 209.909 113.51C209.909 113.977 210.096 114.397 210.469 114.77C210.889 115.097 211.939 115.377 213.619 115.61C214.412 115.703 215.299 115.843 216.279 116.03C217.306 116.217 218.286 116.52 219.219 116.94C220.152 117.313 220.922 117.92 221.529 118.76C222.136 119.6 222.439 120.743 222.439 122.19C222.439 123.683 222.019 124.92 221.179 125.9C220.339 126.833 219.242 127.533 217.889 128C216.582 128.467 215.159 128.7 213.619 128.7ZM234.552 128.7C232.732 128.7 231.238 128.14 230.072 127.02C228.905 125.9 228.322 124.22 228.322 121.98V113.09C228.322 112.623 228.088 112.39 227.622 112.39H226.362C225.755 112.39 225.242 112.203 224.822 111.83C224.402 111.41 224.192 110.897 224.192 110.29C224.192 109.637 224.402 109.1 224.822 108.68C225.242 108.26 225.755 108.05 226.362 108.05H227.622C228.088 108.05 228.322 107.817 228.322 107.35V101.47C228.322 100.817 228.532 100.303 228.952 99.93C229.418 99.51 229.978 99.3 230.632 99.3C231.332 99.3 231.892 99.51 232.312 99.93C232.778 100.303 233.012 100.817 233.012 101.47V107.35C233.012 107.817 233.245 108.05 233.712 108.05H237.492C238.052 108.05 238.542 108.26 238.962 108.68C239.382 109.1 239.592 109.637 239.592 110.29C239.592 110.897 239.382 111.41 238.962 111.83C238.588 112.203 238.075 112.39 237.422 112.39H233.712C233.245 112.39 233.012 112.623 233.012 113.09V121.35C233.012 123.31 233.805 124.29 235.392 124.29C235.858 124.29 236.348 124.22 236.862 124.08C237.375 123.94 237.725 123.87 237.912 123.87C238.565 123.87 239.055 124.08 239.382 124.5C239.755 124.92 239.942 125.41 239.942 125.97C239.942 126.39 239.825 126.81 239.592 127.23C239.358 127.603 238.985 127.883 238.472 128.07C237.958 128.257 237.305 128.397 236.512 128.49C235.765 128.63 235.112 128.7 234.552 128.7Z" fill="white"/>
<path d="M3.96 201C3.42667 201 2.96 200.853 2.56 200.56C2.18667 200.267 2 199.8 2 199.16V186.92C2 186.333 2.17333 185.907 2.52 185.64C2.86667 185.347 3.26667 185.2 3.72 185.2H7.28C8.8 185.2 10.1733 185.493 11.4 186.08C12.6267 186.64 13.6 187.507 14.32 188.68C15.04 189.827 15.4 191.28 15.4 193.04C15.4 194.4 15.1067 195.693 14.52 196.92C13.9333 198.12 13.1067 199.107 12.04 199.88C11 200.627 9.74667 201 8.28 201H3.96ZM5.32 199.36H7.44C8.72 199.36 9.81333 199.08 10.72 198.52C11.6267 197.933 12.32 197.16 12.8 196.2C13.3067 195.24 13.5467 194.173 13.52 193C13.4933 191.08 12.92 189.587 11.8 188.52C10.7067 187.453 9.24 186.92 7.4 186.92H5.32C4.38667 186.92 3.92 187.387 3.92 188.32V197.96C3.92 198.893 4.38667 199.36 5.32 199.36ZM19.3263 201.4C19.0596 201.4 18.8329 201.307 18.6463 201.12C18.4863 200.96 18.4063 200.747 18.4063 200.48V190.28C18.4063 189.987 18.4996 189.773 18.6863 189.64C18.8729 189.48 19.0863 189.4 19.3263 189.4C19.5396 189.4 19.7396 189.48 19.9263 189.64C20.1129 189.773 20.2063 189.987 20.2063 190.28V200.48C20.2063 200.747 20.1263 200.96 19.9663 201.12C19.8063 201.307 19.5929 201.4 19.3263 201.4ZM19.2063 186.76C18.7796 186.76 18.4329 186.64 18.1663 186.4C17.9263 186.133 17.8063 185.8 17.8063 185.4C17.8063 184.973 17.9263 184.64 18.1663 184.4C18.4329 184.133 18.7796 184 19.2063 184C19.6329 184 19.9663 184.133 20.2063 184.4C20.4729 184.64 20.6063 184.973 20.6063 185.4C20.6063 185.8 20.4729 186.133 20.2063 186.4C19.9663 186.64 19.6329 186.76 19.2063 186.76ZM27.6722 201.4C25.8589 201.4 24.3922 200.88 23.2722 199.84C23.0855 199.653 22.9922 199.44 22.9922 199.2C22.9922 198.933 23.0989 198.72 23.3122 198.56C23.5255 198.4 23.6989 198.32 23.8322 198.32C24.0455 198.32 24.3122 198.453 24.6322 198.72C25.0322 199.067 25.4855 199.333 25.9922 199.52C26.5255 199.707 27.1255 199.8 27.7922 199.8C28.7255 199.8 29.4189 199.627 29.8722 199.28C30.3522 198.933 30.5922 198.467 30.5922 197.88C30.5922 197.267 30.3389 196.827 29.8322 196.56C29.3255 196.267 28.6055 196.067 27.6722 195.96C27.1655 195.907 26.5522 195.813 25.8322 195.68C25.1389 195.547 24.5255 195.28 23.9922 194.88C23.4589 194.453 23.1922 193.813 23.1922 192.96C23.1922 191.867 23.5922 191 24.3922 190.36C25.1922 189.72 26.3122 189.4 27.7522 189.4C28.5789 189.4 29.3522 189.507 30.0722 189.72C30.7922 189.907 31.3122 190.147 31.6322 190.44C31.8455 190.6 31.9522 190.813 31.9522 191.08C31.9522 191.267 31.8722 191.467 31.7122 191.68C31.5522 191.867 31.3655 191.96 31.1522 191.96C31.0455 191.96 30.9389 191.933 30.8322 191.88C30.7255 191.827 30.6189 191.773 30.5122 191.72C30.0322 191.453 29.5922 191.267 29.1922 191.16C28.8189 191.053 28.3655 191 27.8322 191C26.9789 191 26.2855 191.16 25.7522 191.48C25.2455 191.773 24.9922 192.227 24.9922 192.84C24.9922 193.267 25.1655 193.587 25.5122 193.8C25.8855 193.987 26.6055 194.147 27.6722 194.28C28.0455 194.333 28.4989 194.413 29.0322 194.52C29.5655 194.627 30.0855 194.8 30.5922 195.04C31.0989 195.253 31.5255 195.587 31.8722 196.04C32.2189 196.467 32.3922 197.04 32.3922 197.76C32.3922 198.853 31.9789 199.733 31.1522 200.4C30.3255 201.067 29.1655 201.4 27.6722 201.4ZM40.6338 201.4C39.4604 201.4 38.4338 201.133 37.5538 200.6C36.6738 200.04 35.9937 199.307 35.5138 198.4C35.0338 197.467 34.7938 196.44 34.7938 195.32C34.7938 194.173 35.0471 193.16 35.5538 192.28C36.0871 191.373 36.7938 190.667 37.6738 190.16C38.5538 189.653 39.5404 189.4 40.6338 189.4C42.2604 189.4 43.5671 189.76 44.5538 190.48C44.7938 190.64 44.9138 190.88 44.9138 191.2C44.9138 191.733 44.6471 192 44.1138 192C44.0604 192 43.9938 192 43.9138 192C43.8338 191.973 43.7538 191.947 43.6738 191.92C43.3271 191.707 42.9004 191.493 42.3938 191.28C41.9138 191.067 41.3671 190.96 40.7538 190.96C39.5271 190.96 38.5271 191.387 37.7538 192.24C36.9804 193.067 36.5938 194.107 36.5938 195.36C36.5938 196.587 36.9538 197.6 37.6738 198.4C38.4204 199.173 39.3671 199.627 40.5138 199.76C41.2338 199.787 41.9271 199.653 42.5938 199.36C43.2871 199.067 43.8604 198.707 44.3138 198.28C44.4738 198.147 44.6471 198.08 44.8338 198.08C45.0471 198.08 45.2204 198.173 45.3537 198.36C45.5138 198.52 45.5938 198.707 45.5938 198.92C45.5938 199.133 45.4738 199.387 45.2338 199.68C44.6471 200.213 43.9804 200.64 43.2338 200.96C42.4871 201.253 41.6204 201.4 40.6338 201.4ZM49.5216 201.4C49.2549 201.4 49.0282 201.307 48.8416 201.12C48.6816 200.96 48.6016 200.747 48.6016 200.48V190.28C48.6016 189.987 48.6949 189.773 48.8816 189.64C49.0682 189.48 49.2816 189.4 49.5216 189.4C49.7349 189.4 49.9349 189.48 50.1216 189.64C50.3082 189.773 50.4016 189.987 50.4016 190.28V200.48C50.4016 200.747 50.3216 200.96 50.1616 201.12C50.0016 201.307 49.7882 201.4 49.5216 201.4ZM49.4016 186.76C48.9749 186.76 48.6282 186.64 48.3616 186.4C48.1216 186.133 48.0016 185.8 48.0016 185.4C48.0016 184.973 48.1216 184.64 48.3616 184.4C48.6282 184.133 48.9749 184 49.4016 184C49.8282 184 50.1616 184.133 50.4016 184.4C50.6682 184.64 50.8016 184.973 50.8016 185.4C50.8016 185.8 50.6682 186.133 50.4016 186.4C50.1616 186.64 49.8282 186.76 49.4016 186.76ZM59.9075 201.4C59.0542 201.4 58.2675 201.24 57.5475 200.92C56.8542 200.573 56.2675 200.107 55.7875 199.52V205.68C55.7875 205.947 55.7075 206.16 55.5475 206.32C55.3875 206.507 55.1742 206.6 54.9075 206.6C54.6408 206.6 54.4142 206.507 54.2275 206.32C54.0675 206.16 53.9875 205.947 53.9875 205.68V190.48C53.9875 190.187 54.0808 189.973 54.2675 189.84C54.4542 189.68 54.6675 189.6 54.9075 189.6C55.1208 189.6 55.3208 189.68 55.5075 189.84C55.6942 189.973 55.7875 190.187 55.7875 190.48V191.2C56.8275 190 58.2008 189.4 59.9075 189.4C61.5608 189.4 62.9208 189.96 63.9875 191.08C65.0542 192.173 65.5875 193.587 65.5875 195.32C65.5875 197.107 65.0542 198.573 63.9875 199.72C62.9208 200.84 61.5608 201.4 59.9075 201.4ZM59.9075 199.76C61.0542 199.76 61.9742 199.333 62.6675 198.48C63.3875 197.627 63.7475 196.573 63.7475 195.32C63.7475 194.12 63.3875 193.107 62.6675 192.28C61.9742 191.453 61.0542 191.04 59.9075 191.04C58.6808 191.04 57.6808 191.4 56.9075 192.12C56.1608 192.84 55.7875 193.907 55.7875 195.32C55.7875 196.787 56.1608 197.893 56.9075 198.64C57.6808 199.387 58.6808 199.76 59.9075 199.76ZM69.5169 201.4C69.2502 201.4 69.0235 201.307 68.8369 201.12C68.6769 200.96 68.5969 200.747 68.5969 200.48V184.68C68.5969 184.387 68.6902 184.173 68.8769 184.04C69.0635 183.88 69.2769 183.8 69.5169 183.8C69.7302 183.8 69.9302 183.88 70.1169 184.04C70.3035 184.173 70.3969 184.387 70.3969 184.68V200.48C70.3969 200.747 70.3169 200.96 70.1569 201.12C69.9969 201.307 69.7835 201.4 69.5169 201.4ZM75.1075 201.4C74.8408 201.4 74.6142 201.307 74.4275 201.12C74.2675 200.96 74.1875 200.747 74.1875 200.48V190.28C74.1875 189.987 74.2808 189.773 74.4675 189.64C74.6542 189.48 74.8675 189.4 75.1075 189.4C75.3208 189.4 75.5208 189.48 75.7075 189.64C75.8942 189.773 75.9875 189.987 75.9875 190.28V200.48C75.9875 200.747 75.9075 200.96 75.7475 201.12C75.5875 201.307 75.3742 201.4 75.1075 201.4ZM74.9875 186.76C74.5608 186.76 74.2142 186.64 73.9475 186.4C73.7075 186.133 73.5875 185.8 73.5875 185.4C73.5875 184.973 73.7075 184.64 73.9475 184.4C74.2142 184.133 74.5608 184 74.9875 184C75.4142 184 75.7475 184.133 75.9875 184.4C76.2542 184.64 76.3875 184.973 76.3875 185.4C76.3875 185.8 76.2542 186.133 75.9875 186.4C75.7475 186.64 75.4142 186.76 74.9875 186.76ZM89.4934 201.4C89.2268 201.4 89.0001 201.307 88.8134 201.12C88.6534 200.96 88.5734 200.747 88.5734 200.48V195.04C88.5734 193.707 88.2934 192.72 87.7334 192.08C87.1734 191.44 86.3868 191.12 85.3734 191.12C84.4401 191.12 83.6668 191.347 83.0534 191.8C82.4668 192.227 82.0401 192.773 81.7734 193.44C81.5068 194.08 81.3734 194.72 81.3734 195.36V200.48C81.3734 200.747 81.2934 200.96 81.1334 201.12C80.9734 201.307 80.7601 201.4 80.4934 201.4C80.2268 201.4 80.0001 201.307 79.8134 201.12C79.6534 200.96 79.5734 200.747 79.5734 200.48V190.48C79.5734 190.187 79.6668 189.973 79.8534 189.84C80.0401 189.68 80.2534 189.6 80.4934 189.6C80.7068 189.6 80.9068 189.68 81.0934 189.84C81.2801 189.973 81.3734 190.187 81.3734 190.48V191.36C81.9068 190.747 82.5468 190.267 83.2934 189.92C84.0401 189.573 84.8134 189.4 85.6134 189.4C86.9734 189.4 88.1068 189.853 89.0134 190.76C89.9201 191.64 90.3734 193.013 90.3734 194.88V200.48C90.3734 200.747 90.2934 200.96 90.1334 201.12C89.9734 201.307 89.7601 201.4 89.4934 201.4ZM99.3522 201.4C97.4855 201.4 95.9922 200.853 94.8722 199.76C93.7522 198.64 93.1922 197.107 93.1922 195.16C93.1922 194.093 93.4322 193.133 93.9122 192.28C94.3922 191.4 95.0589 190.707 95.9122 190.2C96.7922 189.667 97.8189 189.4 98.9922 189.4C100.219 189.4 101.232 189.667 102.032 190.2C102.832 190.707 103.419 191.347 103.792 192.12C104.192 192.867 104.392 193.613 104.392 194.36C104.392 194.813 104.286 195.187 104.072 195.48C103.886 195.773 103.606 195.92 103.232 195.92H95.5522C95.3922 195.92 95.2722 195.933 95.1922 195.96C95.1389 195.987 95.1122 196.08 95.1122 196.24C95.1122 196.693 95.2589 197.187 95.5522 197.72C95.8455 198.253 96.2589 198.72 96.7922 199.12C97.3522 199.493 97.9922 199.707 98.7122 199.76C99.4855 199.813 100.246 199.733 100.992 199.52C101.739 199.307 102.406 198.973 102.992 198.52C103.126 198.413 103.272 198.36 103.432 198.36C103.619 198.36 103.792 198.44 103.952 198.6C104.139 198.76 104.232 198.96 104.232 199.2C104.232 199.44 104.112 199.68 103.872 199.92C103.232 200.427 102.512 200.8 101.712 201.04C100.912 201.28 100.126 201.4 99.3522 201.4ZM101.872 194.52C102.086 194.52 102.246 194.44 102.352 194.28C102.459 194.093 102.486 193.867 102.432 193.6C102.352 192.907 101.992 192.293 101.352 191.76C100.712 191.2 99.9255 190.92 98.9922 190.92C98.2989 190.92 97.6589 191.093 97.0722 191.44C96.5122 191.76 96.0589 192.173 95.7122 192.68C95.3655 193.187 95.1922 193.72 95.1922 194.28C95.1922 194.413 95.3122 194.48 95.5522 194.48L101.872 194.52ZM117.554 201C117.02 201 116.554 200.853 116.154 200.56C115.78 200.267 115.594 199.8 115.594 199.16V186.92C115.594 186.333 115.767 185.907 116.114 185.64C116.46 185.347 116.86 185.2 117.314 185.2H120.874C122.394 185.2 123.767 185.493 124.994 186.08C126.22 186.64 127.194 187.507 127.914 188.68C128.634 189.827 128.994 191.28 128.994 193.04C128.994 194.4 128.7 195.693 128.114 196.92C127.527 198.12 126.7 199.107 125.634 199.88C124.594 200.627 123.34 201 121.874 201H117.554ZM118.914 199.36H121.034C122.314 199.36 123.407 199.08 124.314 198.52C125.22 197.933 125.914 197.16 126.394 196.2C126.9 195.24 127.14 194.173 127.114 193C127.087 191.08 126.514 189.587 125.394 188.52C124.3 187.453 122.834 186.92 120.994 186.92H118.914C117.98 186.92 117.514 187.387 117.514 188.32V197.96C117.514 198.893 117.98 199.36 118.914 199.36ZM137.36 201.4C135.493 201.4 134 200.853 132.88 199.76C131.76 198.64 131.2 197.107 131.2 195.16C131.2 194.093 131.44 193.133 131.92 192.28C132.4 191.4 133.067 190.707 133.92 190.2C134.8 189.667 135.827 189.4 137 189.4C138.227 189.4 139.24 189.667 140.04 190.2C140.84 190.707 141.427 191.347 141.8 192.12C142.2 192.867 142.4 193.613 142.4 194.36C142.4 194.813 142.293 195.187 142.08 195.48C141.893 195.773 141.613 195.92 141.24 195.92H133.56C133.4 195.92 133.28 195.933 133.2 195.96C133.147 195.987 133.12 196.08 133.12 196.24C133.12 196.693 133.267 197.187 133.56 197.72C133.853 198.253 134.267 198.72 134.8 199.12C135.36 199.493 136 199.707 136.72 199.76C137.493 199.813 138.253 199.733 139 199.52C139.747 199.307 140.413 198.973 141 198.52C141.133 198.413 141.28 198.36 141.44 198.36C141.627 198.36 141.8 198.44 141.96 198.6C142.147 198.76 142.24 198.96 142.24 199.2C142.24 199.44 142.12 199.68 141.88 199.92C141.24 200.427 140.52 200.8 139.72 201.04C138.92 201.28 138.133 201.4 137.36 201.4ZM139.88 194.52C140.093 194.52 140.253 194.44 140.36 194.28C140.467 194.093 140.493 193.867 140.44 193.6C140.36 192.907 140 192.293 139.36 191.76C138.72 191.2 137.933 190.92 137 190.92C136.307 190.92 135.667 191.093 135.08 191.44C134.52 191.76 134.067 192.173 133.72 192.68C133.373 193.187 133.2 193.72 133.2 194.28C133.2 194.413 133.32 194.48 133.56 194.48L139.88 194.52ZM147.274 201.4C147.06 201.4 146.86 201.32 146.674 201.16C146.487 201.027 146.394 200.813 146.394 200.52V191.8C146.394 191.533 146.26 191.4 145.994 191.4H144.794C144.58 191.4 144.394 191.32 144.234 191.16C144.074 191 143.994 190.813 143.994 190.6C143.994 190.387 144.074 190.2 144.234 190.04C144.394 189.88 144.58 189.8 144.794 189.8H145.994C146.26 189.8 146.394 189.667 146.394 189.4V187.96C146.394 186.707 146.754 185.733 147.474 185.04C148.194 184.347 149.114 184 150.234 184C150.447 184 150.687 184.027 150.954 184.08C151.247 184.107 151.487 184.16 151.674 184.24C152.02 184.347 152.194 184.6 152.194 185C152.194 185.293 152.087 185.547 151.874 185.76C151.66 185.947 151.394 186 151.074 185.92C150.914 185.867 150.74 185.827 150.554 185.8C150.394 185.773 150.247 185.76 150.114 185.76C149.607 185.76 149.154 185.947 148.754 186.32C148.38 186.667 148.194 187.24 148.194 188.04V189.4C148.194 189.667 148.327 189.8 148.594 189.8H150.994C151.207 189.8 151.394 189.88 151.554 190.04C151.714 190.2 151.794 190.387 151.794 190.6C151.794 190.813 151.714 191 151.554 191.16C151.394 191.32 151.207 191.4 150.994 191.4H148.594C148.327 191.4 148.194 191.533 148.194 191.8V200.52C148.194 200.813 148.1 201.027 147.914 201.16C147.727 201.32 147.514 201.4 147.274 201.4ZM159.938 201.4C158.071 201.4 156.578 200.853 155.458 199.76C154.338 198.64 153.778 197.107 153.778 195.16C153.778 194.093 154.018 193.133 154.498 192.28C154.978 191.4 155.645 190.707 156.498 190.2C157.378 189.667 158.405 189.4 159.578 189.4C160.805 189.4 161.818 189.667 162.618 190.2C163.418 190.707 164.005 191.347 164.378 192.12C164.778 192.867 164.978 193.613 164.978 194.36C164.978 194.813 164.871 195.187 164.658 195.48C164.471 195.773 164.191 195.92 163.818 195.92H156.138C155.978 195.92 155.858 195.933 155.778 195.96C155.725 195.987 155.698 196.08 155.698 196.24C155.698 196.693 155.845 197.187 156.138 197.72C156.431 198.253 156.845 198.72 157.378 199.12C157.938 199.493 158.578 199.707 159.298 199.76C160.071 199.813 160.831 199.733 161.578 199.52C162.325 199.307 162.991 198.973 163.578 198.52C163.711 198.413 163.858 198.36 164.018 198.36C164.205 198.36 164.378 198.44 164.538 198.6C164.725 198.76 164.818 198.96 164.818 199.2C164.818 199.44 164.698 199.68 164.458 199.92C163.818 200.427 163.098 200.8 162.298 201.04C161.498 201.28 160.711 201.4 159.938 201.4ZM162.458 194.52C162.671 194.52 162.831 194.44 162.938 194.28C163.045 194.093 163.071 193.867 163.018 193.6C162.938 192.907 162.578 192.293 161.938 191.76C161.298 191.2 160.511 190.92 159.578 190.92C158.885 190.92 158.245 191.093 157.658 191.44C157.098 191.76 156.645 192.173 156.298 192.68C155.951 193.187 155.778 193.72 155.778 194.28C155.778 194.413 155.898 194.48 156.138 194.48L162.458 194.52ZM173.443 201.4C171.789 201.4 170.429 200.84 169.363 199.72C168.296 198.573 167.763 197.107 167.763 195.32C167.763 193.587 168.296 192.173 169.363 191.08C170.429 189.96 171.789 189.4 173.443 189.4C175.149 189.4 176.523 190 177.563 191.2V190.48C177.563 190.187 177.656 189.973 177.843 189.84C178.029 189.68 178.229 189.6 178.443 189.6C178.683 189.6 178.896 189.68 179.083 189.84C179.269 189.973 179.363 190.187 179.363 190.48V200.48C179.363 200.747 179.269 200.96 179.083 201.12C178.923 201.307 178.709 201.4 178.443 201.4C178.176 201.4 177.963 201.307 177.803 201.12C177.643 200.96 177.563 200.747 177.563 200.48V199.52C177.083 200.107 176.483 200.573 175.763 200.92C175.069 201.24 174.296 201.4 173.443 201.4ZM173.443 199.76C174.696 199.76 175.696 199.387 176.443 198.64C177.189 197.893 177.563 196.787 177.563 195.32C177.563 193.907 177.189 192.84 176.443 192.12C175.696 191.4 174.696 191.04 173.443 191.04C172.296 191.04 171.363 191.453 170.643 192.28C169.949 193.107 169.603 194.12 169.603 195.32C169.603 196.573 169.949 197.627 170.643 198.48C171.363 199.333 172.296 199.76 173.443 199.76ZM187.057 201.4C185.963 201.4 185.11 201.08 184.497 200.44C183.883 199.773 183.577 198.867 183.577 197.72V191.8C183.577 191.533 183.443 191.4 183.177 191.4H182.177C181.963 191.4 181.777 191.32 181.617 191.16C181.457 191 181.377 190.813 181.377 190.6C181.377 190.387 181.457 190.2 181.617 190.04C181.777 189.88 181.963 189.8 182.177 189.8H183.177C183.443 189.8 183.577 189.667 183.577 189.4V185.68C183.577 185.387 183.67 185.173 183.857 185.04C184.043 184.88 184.243 184.8 184.457 184.8C184.697 184.8 184.91 184.88 185.097 185.04C185.283 185.173 185.377 185.387 185.377 185.68V189.4C185.377 189.667 185.51 189.8 185.777 189.8H188.577C188.79 189.8 188.977 189.88 189.137 190.04C189.297 190.2 189.377 190.387 189.377 190.6C189.377 190.813 189.297 191 189.137 191.16C188.977 191.32 188.79 191.4 188.577 191.4H185.777C185.51 191.4 185.377 191.533 185.377 191.8V197.6C185.377 198.987 186.017 199.68 187.297 199.68C187.617 199.68 187.87 199.64 188.057 199.56C188.27 199.48 188.443 199.44 188.577 199.44C188.817 199.44 189.003 199.533 189.137 199.72C189.297 199.907 189.377 200.107 189.377 200.32C189.377 200.747 189.177 201.013 188.777 201.12C188.51 201.227 188.217 201.293 187.897 201.32C187.603 201.373 187.323 201.4 187.057 201.4ZM195.875 201.4C194.062 201.4 192.595 200.88 191.475 199.84C191.289 199.653 191.195 199.44 191.195 199.2C191.195 198.933 191.302 198.72 191.515 198.56C191.729 198.4 191.902 198.32 192.035 198.32C192.249 198.32 192.515 198.453 192.835 198.72C193.235 199.067 193.689 199.333 194.195 199.52C194.729 199.707 195.329 199.8 195.995 199.8C196.929 199.8 197.622 199.627 198.075 199.28C198.555 198.933 198.795 198.467 198.795 197.88C198.795 197.267 198.542 196.827 198.035 196.56C197.529 196.267 196.809 196.067 195.875 195.96C195.369 195.907 194.755 195.813 194.035 195.68C193.342 195.547 192.729 195.28 192.195 194.88C191.662 194.453 191.395 193.813 191.395 192.96C191.395 191.867 191.795 191 192.595 190.36C193.395 189.72 194.515 189.4 195.955 189.4C196.782 189.4 197.555 189.507 198.275 189.72C198.995 189.907 199.515 190.147 199.835 190.44C200.049 190.6 200.155 190.813 200.155 191.08C200.155 191.267 200.075 191.467 199.915 191.68C199.755 191.867 199.569 191.96 199.355 191.96C199.249 191.96 199.142 191.933 199.035 191.88C198.929 191.827 198.822 191.773 198.715 191.72C198.235 191.453 197.795 191.267 197.395 191.16C197.022 191.053 196.569 191 196.035 191C195.182 191 194.489 191.16 193.955 191.48C193.449 191.773 193.195 192.227 193.195 192.84C193.195 193.267 193.369 193.587 193.715 193.8C194.089 193.987 194.809 194.147 195.875 194.28C196.249 194.333 196.702 194.413 197.235 194.52C197.769 194.627 198.289 194.8 198.795 195.04C199.302 195.253 199.729 195.587 200.075 196.04C200.422 196.467 200.595 197.04 200.595 197.76C200.595 198.853 200.182 199.733 199.355 200.4C198.529 201.067 197.369 201.4 195.875 201.4ZM216.165 201.4C215.898 201.4 215.671 201.307 215.485 201.12C215.325 200.933 215.245 200.72 215.245 200.48V188.24C215.245 187.307 214.818 186.84 213.965 186.84H211.085C210.791 186.84 210.565 186.76 210.405 186.6C210.271 186.413 210.205 186.227 210.205 186.04C210.205 185.48 210.498 185.2 211.085 185.2H221.405C221.938 185.2 222.205 185.48 222.205 186.04C222.205 186.227 222.138 186.413 222.005 186.6C221.898 186.76 221.698 186.84 221.405 186.84H218.445C217.591 186.84 217.165 187.307 217.165 188.24V200.48C217.165 200.72 217.071 200.933 216.885 201.12C216.698 201.307 216.458 201.4 216.165 201.4ZM228.482 201.4C226.828 201.4 225.468 200.84 224.402 199.72C223.335 198.573 222.802 197.107 222.802 195.32C222.802 193.587 223.335 192.173 224.402 191.08C225.468 189.96 226.828 189.4 228.482 189.4C230.188 189.4 231.562 190 232.602 191.2V190.48C232.602 190.187 232.695 189.973 232.882 189.84C233.068 189.68 233.268 189.6 233.482 189.6C233.722 189.6 233.935 189.68 234.122 189.84C234.308 189.973 234.402 190.187 234.402 190.48V200.48C234.402 200.747 234.308 200.96 234.122 201.12C233.962 201.307 233.748 201.4 233.482 201.4C233.215 201.4 233.002 201.307 232.842 201.12C232.682 200.96 232.602 200.747 232.602 200.48V199.52C232.122 200.107 231.522 200.573 230.802 200.92C230.108 201.24 229.335 201.4 228.482 201.4ZM228.482 199.76C229.735 199.76 230.735 199.387 231.482 198.64C232.228 197.893 232.602 196.787 232.602 195.32C232.602 193.907 232.228 192.84 231.482 192.12C230.735 191.4 229.735 191.04 228.482 191.04C227.335 191.04 226.402 191.453 225.682 192.28C224.988 193.107 224.642 194.12 224.642 195.32C224.642 196.573 224.988 197.627 225.682 198.48C226.402 199.333 227.335 199.76 228.482 199.76ZM238.736 201.4C238.469 201.4 238.242 201.307 238.056 201.12C237.896 200.96 237.816 200.747 237.816 200.48V184.68C237.816 184.387 237.909 184.173 238.096 184.04C238.282 183.88 238.496 183.8 238.736 183.8C238.949 183.8 239.149 183.88 239.336 184.04C239.522 184.173 239.616 184.387 239.616 184.68V200.48C239.616 200.747 239.536 200.96 239.376 201.12C239.216 201.307 239.002 201.4 238.736 201.4ZM248.766 201.4C246.9 201.4 245.406 200.853 244.286 199.76C243.166 198.64 242.606 197.107 242.606 195.16C242.606 194.093 242.846 193.133 243.326 192.28C243.806 191.4 244.473 190.707 245.326 190.2C246.206 189.667 247.233 189.4 248.406 189.4C249.633 189.4 250.646 189.667 251.446 190.2C252.246 190.707 252.833 191.347 253.206 192.12C253.606 192.867 253.806 193.613 253.806 194.36C253.806 194.813 253.7 195.187 253.486 195.48C253.3 195.773 253.02 195.92 252.646 195.92H244.966C244.806 195.92 244.686 195.933 244.606 195.96C244.553 195.987 244.526 196.08 244.526 196.24C244.526 196.693 244.673 197.187 244.966 197.72C245.26 198.253 245.673 198.72 246.206 199.12C246.766 199.493 247.406 199.707 248.126 199.76C248.9 199.813 249.66 199.733 250.406 199.52C251.153 199.307 251.82 198.973 252.406 198.52C252.54 198.413 252.686 198.36 252.846 198.36C253.033 198.36 253.206 198.44 253.366 198.6C253.553 198.76 253.646 198.96 253.646 199.2C253.646 199.44 253.526 199.68 253.286 199.92C252.646 200.427 251.926 200.8 251.126 201.04C250.326 201.28 249.54 201.4 248.766 201.4ZM251.286 194.52C251.5 194.52 251.66 194.44 251.766 194.28C251.873 194.093 251.9 193.867 251.846 193.6C251.766 192.907 251.406 192.293 250.766 191.76C250.126 191.2 249.34 190.92 248.406 190.92C247.713 190.92 247.073 191.093 246.486 191.44C245.926 191.76 245.473 192.173 245.126 192.68C244.78 193.187 244.606 193.72 244.606 194.28C244.606 194.413 244.726 194.48 244.966 194.48L251.286 194.52ZM266.72 201.4C266.453 201.4 266.227 201.307 266.04 201.12C265.88 200.96 265.8 200.747 265.8 200.48V195.04C265.8 193.707 265.52 192.72 264.96 192.08C264.4 191.44 263.613 191.12 262.6 191.12C261.667 191.12 260.893 191.347 260.28 191.8C259.693 192.227 259.267 192.773 259 193.44C258.733 194.08 258.6 194.72 258.6 195.36V200.48C258.6 200.747 258.52 200.96 258.36 201.12C258.2 201.307 257.987 201.4 257.72 201.4C257.453 201.4 257.227 201.307 257.04 201.12C256.88 200.96 256.8 200.747 256.8 200.48V190.48C256.8 190.187 256.893 189.973 257.08 189.84C257.267 189.68 257.48 189.6 257.72 189.6C257.933 189.6 258.133 189.68 258.32 189.84C258.507 189.973 258.6 190.187 258.6 190.48V191.36C259.133 190.747 259.773 190.267 260.52 189.92C261.267 189.573 262.04 189.4 262.84 189.4C264.2 189.4 265.333 189.853 266.24 190.76C267.147 191.64 267.6 193.013 267.6 194.88V200.48C267.6 200.747 267.52 200.96 267.36 201.12C267.2 201.307 266.987 201.4 266.72 201.4ZM275.299 201.4C274.205 201.4 273.352 201.08 272.739 200.44C272.125 199.773 271.819 198.867 271.819 197.72V191.8C271.819 191.533 271.685 191.4 271.419 191.4H270.419C270.205 191.4 270.019 191.32 269.859 191.16C269.699 191 269.619 190.813 269.619 190.6C269.619 190.387 269.699 190.2 269.859 190.04C270.019 189.88 270.205 189.8 270.419 189.8H271.419C271.685 189.8 271.819 189.667 271.819 189.4V185.68C271.819 185.387 271.912 185.173 272.099 185.04C272.285 184.88 272.485 184.8 272.699 184.8C272.939 184.8 273.152 184.88 273.339 185.04C273.525 185.173 273.619 185.387 273.619 185.68V189.4C273.619 189.667 273.752 189.8 274.019 189.8H276.819C277.032 189.8 277.219 189.88 277.379 190.04C277.539 190.2 277.619 190.387 277.619 190.6C277.619 190.813 277.539 191 277.379 191.16C277.219 191.32 277.032 191.4 276.819 191.4H274.019C273.752 191.4 273.619 191.533 273.619 191.8V197.6C273.619 198.987 274.259 199.68 275.539 199.68C275.859 199.68 276.112 199.64 276.299 199.56C276.512 199.48 276.685 199.44 276.819 199.44C277.059 199.44 277.245 199.533 277.379 199.72C277.539 199.907 277.619 200.107 277.619 200.32C277.619 200.747 277.419 201.013 277.019 201.12C276.752 201.227 276.459 201.293 276.139 201.32C275.845 201.373 275.565 201.4 275.299 201.4Z" fill="white"/>
<path d="M139.333 162C139.333 163.473 140.527 164.667 142 164.667C143.473 164.667 144.667 163.473 144.667 162C144.667 160.527 143.473 159.333 142 159.333C140.527 159.333 139.333 160.527 139.333 162ZM141 162.5H142V161.5H141V162.5Z" fill="white"/>
<line x1="29" y1="162" x2="135" y2="162" stroke="white"/>
<path d="M29.3536 162.354C29.5488 162.158 29.5488 161.842 29.3536 161.646L26.1716 158.464C25.9763 158.269 25.6597 158.269 25.4645 158.464C25.2692 158.66 25.2692 158.976 25.4645 159.172L28.2929 162L25.4645 164.828C25.2692 165.024 25.2692 165.34 25.4645 165.536C25.6597 165.731 25.9763 165.731 26.1716 165.536L29.3536 162.354ZM28 162.5H29V161.5H28V162.5Z" fill="white"/>
<path d="M33.3536 162.354C33.5488 162.158 33.5488 161.842 33.3536 161.646L30.1716 158.464C29.9763 158.269 29.6597 158.269 29.4645 158.464C29.2692 158.66 29.2692 158.976 29.4645 159.172L32.2929 162L29.4645 164.828C29.2692 165.024 29.2692 165.34 29.4645 165.536C29.6597 165.731 29.9763 165.731 30.1716 165.536L33.3536 162.354ZM32 162.5H33V161.5H32V162.5Z" fill="white"/>
<line x1="148" y1="162" x2="254" y2="162" stroke="white"/>
<path d="M249.646 161.646C249.451 161.842 249.451 162.158 249.646 162.354L252.828 165.536C253.024 165.731 253.34 165.731 253.536 165.536C253.731 165.34 253.731 165.024 253.536 164.828L250.707 162L253.536 159.172C253.731 158.976 253.731 158.66 253.536 158.464C253.34 158.269 253.024 158.269 252.828 158.464L249.646 161.646ZM251 161.5H250V162.5H251V161.5Z" fill="white"/>
<path d="M253.646 161.646C253.451 161.842 253.451 162.158 253.646 162.354L256.828 165.536C257.024 165.731 257.34 165.731 257.536 165.536C257.731 165.34 257.731 165.024 257.536 164.828L254.707 162L257.536 159.172C257.731 158.976 257.731 158.66 257.536 158.464C257.34 158.269 257.024 158.269 256.828 158.464L253.646 161.646ZM255 161.5H254V162.5H255V161.5Z" fill="white"/>
</svg>
