<svg width="227" height="141" viewBox="0 0 227 141" fill="none" xmlns="http://www.w3.org/2000/svg">
<line x1="90.5" y1="75.6902" x2="90.5" y2="3.05176e-05" stroke="black" stroke-width="5"/>
<line x1="130.5" y1="75.6902" x2="130.5" y2="3.05176e-05" stroke="black" stroke-width="5"/>
<line x1="70.5" y1="76" x2="70.5" y2="38" stroke="black" stroke-width="5"/>
<line x1="150.5" y1="76" x2="150.5" y2="38" stroke="black" stroke-width="5"/>
<line x1="110.5" y1="76" x2="110.5" y2="22" stroke="black" stroke-width="5"/>
<path d="M7.21 130C6.23 130 5.29667 129.673 4.41 129.02C3.57 128.367 3.15 127.433 3.15 126.22V105.64C3.15 104.567 3.5 103.703 4.2 103.05C4.94667 102.35 5.81 102 6.79 102H13.09C15.89 102 18.34 102.583 20.44 103.75C22.5867 104.87 24.2433 106.48 25.41 108.58C26.6233 110.68 27.23 113.2 27.23 116.14C27.23 118.707 26.67 121.04 25.55 123.14C24.4767 125.24 22.96 126.92 21 128.18C19.0867 129.393 16.87 130 14.35 130H7.21ZM10.08 125.66H13.16C16.1933 125.66 18.5033 124.867 20.09 123.28C21.6767 121.647 22.4467 119.267 22.4 116.14C22.3533 112.967 21.5367 110.54 19.95 108.86C18.3633 107.18 16.0767 106.34 13.09 106.34H10.15C8.75 106.34 8.05 107.04 8.05 108.44V123.56C8.05 124.96 8.72667 125.66 10.08 125.66ZM40.8144 130.7C38.8077 130.7 37.011 130.233 35.4244 129.3C33.8377 128.367 32.601 127.083 31.7144 125.45C30.8277 123.77 30.3844 121.903 30.3844 119.85C30.3844 117.843 30.8277 116.047 31.7144 114.46C32.601 112.873 33.8377 111.637 35.4244 110.75C37.011 109.817 38.8077 109.35 40.8144 109.35C42.121 109.35 43.2877 109.583 44.3144 110.05C45.341 110.47 46.2277 111.03 46.9744 111.73C47.0677 111.077 47.3477 110.587 47.8144 110.26C48.281 109.887 48.7944 109.7 49.3544 109.7C49.961 109.7 50.4977 109.91 50.9644 110.33C51.4777 110.703 51.7344 111.287 51.7344 112.08V128.53C51.7344 129.23 51.4777 129.767 50.9644 130.14C50.4977 130.513 49.961 130.7 49.3544 130.7C48.7477 130.7 48.1877 130.513 47.6744 130.14C47.2077 129.767 46.9744 129.23 46.9744 128.53V128.25C46.2277 128.997 45.341 129.58 44.3144 130C43.2877 130.467 42.121 130.7 40.8144 130.7ZM41.2344 126.36C43.0077 126.36 44.4077 125.777 45.4344 124.61C46.461 123.397 46.9744 121.81 46.9744 119.85C46.9744 117.983 46.461 116.49 45.4344 115.37C44.4077 114.25 43.0077 113.69 41.2344 113.69C39.4144 113.69 37.9444 114.25 36.8244 115.37C35.7044 116.49 35.1444 117.983 35.1444 119.85C35.1444 121.81 35.7044 123.397 36.8244 124.61C37.9444 125.777 39.4144 126.36 41.2344 126.36ZM59.459 130.7C58.8523 130.7 58.2923 130.513 57.779 130.14C57.3123 129.767 57.079 129.23 57.079 128.53V111.73C57.079 110.937 57.3123 110.353 57.779 109.98C58.2923 109.56 58.8523 109.35 59.459 109.35C60.0657 109.35 60.6023 109.56 61.069 109.98C61.5823 110.353 61.839 110.937 61.839 111.73V128.53C61.839 129.23 61.5823 129.767 61.069 130.14C60.6023 130.513 60.0657 130.7 59.459 130.7ZM59.529 105.5C58.6423 105.5 57.8723 105.22 57.219 104.66C56.6123 104.053 56.309 103.33 56.309 102.49C56.309 101.697 56.6123 101.02 57.219 100.46C57.8723 99.8533 58.6423 99.55 59.529 99.55C60.369 99.55 61.0923 99.8533 61.699 100.46C62.3057 101.02 62.609 101.697 62.609 102.49C62.609 103.33 62.3057 104.053 61.699 104.66C61.0923 105.22 60.369 105.5 59.529 105.5ZM69.9163 130.7C69.3097 130.7 68.7497 130.513 68.2363 130.14C67.7697 129.767 67.5363 129.23 67.5363 128.53V101.93C67.5363 101.137 67.7697 100.553 68.2363 100.18C68.7497 99.76 69.3097 99.55 69.9163 99.55C70.523 99.55 71.0597 99.76 71.5263 100.18C72.0397 100.553 72.2963 101.137 72.2963 101.93V128.53C72.2963 129.23 72.0397 129.767 71.5263 130.14C71.0597 130.513 70.523 130.7 69.9163 130.7ZM75.9637 111.73C75.9637 110.983 76.2203 110.4 76.7337 109.98C77.247 109.56 77.807 109.35 78.4137 109.35C79.3937 109.35 80.0937 109.84 80.5137 110.82L85.9737 124.19C86.1137 124.563 86.3703 124.75 86.7437 124.75C87.117 124.75 87.3737 124.587 87.5137 124.26L92.2037 110.89C92.577 109.863 93.3003 109.35 94.3737 109.35C95.027 109.35 95.6103 109.56 96.1237 109.98C96.6837 110.4 96.9637 110.913 96.9637 111.52C96.9637 111.753 96.8937 112.08 96.7537 112.5L86.0437 138.61C85.6703 139.637 84.947 140.15 83.8737 140.15C83.267 140.15 82.6837 139.94 82.1237 139.52C81.6103 139.1 81.3537 138.587 81.3537 137.98C81.3537 137.513 81.4237 137.187 81.5637 137L84.9937 130C84.0137 129.907 83.337 129.44 82.9637 128.6L76.1037 112.57C76.0103 112.197 75.9637 111.917 75.9637 111.73ZM104.686 130C103.706 130 102.819 129.673 102.026 129.02C101.232 128.32 100.836 127.363 100.836 126.15V105.64C100.836 104.567 101.186 103.703 101.886 103.05C102.632 102.35 103.496 102 104.476 102H111.056C113.249 102 115.186 102.607 116.866 103.82C118.546 104.987 119.386 106.667 119.386 108.86C119.386 110.027 119.129 111.123 118.616 112.15C118.149 113.13 117.519 113.877 116.726 114.39C118.079 114.857 119.152 115.72 119.946 116.98C120.739 118.193 121.136 119.64 121.136 121.32C121.136 124.12 120.296 126.267 118.616 127.76C116.936 129.253 114.836 130 112.316 130H104.686ZM107.416 125.73H112.316C113.809 125.73 114.882 125.287 115.536 124.4C116.236 123.467 116.586 122.463 116.586 121.39C116.586 120.41 116.259 119.477 115.606 118.59C114.952 117.703 113.949 117.26 112.596 117.26H107.136C106.109 117.26 105.596 117.797 105.596 118.87V123.91C105.596 125.123 106.202 125.73 107.416 125.73ZM107.136 113.34H111.196C112.362 113.34 113.249 112.943 113.856 112.15C114.462 111.357 114.766 110.517 114.766 109.63C114.766 108.79 114.462 108.02 113.856 107.32C113.296 106.573 112.409 106.2 111.196 106.2H107.486C106.226 106.2 105.596 106.807 105.596 108.02V111.73C105.596 112.803 106.109 113.34 107.136 113.34ZM135.16 130.7C133.107 130.7 131.24 130.233 129.56 129.3C127.927 128.367 126.643 127.083 125.71 125.45C124.777 123.77 124.31 121.903 124.31 119.85C124.31 117.843 124.777 116.047 125.71 114.46C126.643 112.873 127.927 111.637 129.56 110.75C131.24 109.817 133.107 109.35 135.16 109.35C137.213 109.35 139.057 109.817 140.69 110.75C142.323 111.637 143.607 112.873 144.54 114.46C145.52 116.047 146.01 117.843 146.01 119.85C146.01 121.903 145.52 123.77 144.54 125.45C143.607 127.083 142.323 128.367 140.69 129.3C139.057 130.233 137.213 130.7 135.16 130.7ZM135.16 126.36C136.98 126.36 138.45 125.777 139.57 124.61C140.69 123.397 141.25 121.81 141.25 119.85C141.25 117.983 140.69 116.49 139.57 115.37C138.45 114.25 136.98 113.69 135.16 113.69C133.293 113.69 131.8 114.25 130.68 115.37C129.607 116.49 129.07 117.983 129.07 119.85C129.07 121.81 129.607 123.397 130.68 124.61C131.8 125.777 133.293 126.36 135.16 126.36ZM160.316 130.7C158.263 130.7 156.396 130.233 154.716 129.3C153.083 128.367 151.8 127.083 150.866 125.45C149.933 123.77 149.466 121.903 149.466 119.85C149.466 117.843 149.933 116.047 150.866 114.46C151.8 112.873 153.083 111.637 154.716 110.75C156.396 109.817 158.263 109.35 160.316 109.35C162.37 109.35 164.213 109.817 165.846 110.75C167.48 111.637 168.763 112.873 169.696 114.46C170.676 116.047 171.166 117.843 171.166 119.85C171.166 121.903 170.676 123.77 169.696 125.45C168.763 127.083 167.48 128.367 165.846 129.3C164.213 130.233 162.37 130.7 160.316 130.7ZM160.316 126.36C162.136 126.36 163.606 125.777 164.726 124.61C165.846 123.397 166.406 121.81 166.406 119.85C166.406 117.983 165.846 116.49 164.726 115.37C163.606 114.25 162.136 113.69 160.316 113.69C158.45 113.69 156.956 114.25 155.836 115.37C154.763 116.49 154.226 117.983 154.226 119.85C154.226 121.81 154.763 123.397 155.836 124.61C156.956 125.777 158.45 126.36 160.316 126.36ZM182.619 130.7C181.266 130.7 179.889 130.513 178.489 130.14C177.089 129.813 175.852 129.277 174.779 128.53C174.219 128.017 173.939 127.457 173.939 126.85C173.939 126.243 174.172 125.707 174.639 125.24C175.152 124.773 175.712 124.54 176.319 124.54C176.646 124.54 176.972 124.633 177.299 124.82C178.139 125.333 179.096 125.753 180.169 126.08C181.289 126.36 182.339 126.5 183.319 126.5C184.252 126.5 185.046 126.337 185.699 126.01C186.399 125.683 186.749 125.147 186.749 124.4C186.749 123.653 186.422 123.093 185.769 122.72C185.116 122.347 183.996 122.067 182.409 121.88C181.756 121.787 180.962 121.67 180.029 121.53C179.142 121.39 178.256 121.133 177.369 120.76C176.482 120.387 175.736 119.827 175.129 119.08C174.522 118.333 174.219 117.33 174.219 116.07C174.219 114.017 174.966 112.383 176.459 111.17C177.999 109.957 180.052 109.35 182.619 109.35C184.112 109.35 185.512 109.537 186.819 109.91C188.172 110.283 189.176 110.75 189.829 111.31C190.342 111.73 190.599 112.22 190.599 112.78C190.599 113.387 190.389 113.923 189.969 114.39C189.549 114.857 189.036 115.09 188.429 115.09C188.102 115.09 187.799 115.02 187.519 114.88C186.772 114.46 185.932 114.157 184.999 113.97C184.112 113.737 183.249 113.62 182.409 113.62C181.429 113.62 180.589 113.783 179.889 114.11C179.236 114.39 178.909 114.857 178.909 115.51C178.909 115.977 179.096 116.397 179.469 116.77C179.889 117.097 180.939 117.377 182.619 117.61C183.412 117.703 184.299 117.843 185.279 118.03C186.306 118.217 187.286 118.52 188.219 118.94C189.152 119.313 189.922 119.92 190.529 120.76C191.136 121.6 191.439 122.743 191.439 124.19C191.439 125.683 191.019 126.92 190.179 127.9C189.339 128.833 188.242 129.533 186.889 130C185.582 130.467 184.159 130.7 182.619 130.7ZM203.552 130.7C201.732 130.7 200.238 130.14 199.072 129.02C197.905 127.9 197.322 126.22 197.322 123.98V115.09C197.322 114.623 197.088 114.39 196.622 114.39H195.362C194.755 114.39 194.242 114.203 193.822 113.83C193.402 113.41 193.192 112.897 193.192 112.29C193.192 111.637 193.402 111.1 193.822 110.68C194.242 110.26 194.755 110.05 195.362 110.05H196.622C197.088 110.05 197.322 109.817 197.322 109.35V103.47C197.322 102.817 197.532 102.303 197.952 101.93C198.418 101.51 198.978 101.3 199.632 101.3C200.332 101.3 200.892 101.51 201.312 101.93C201.778 102.303 202.012 102.817 202.012 103.47V109.35C202.012 109.817 202.245 110.05 202.712 110.05H206.492C207.052 110.05 207.542 110.26 207.962 110.68C208.382 111.1 208.592 111.637 208.592 112.29C208.592 112.897 208.382 113.41 207.962 113.83C207.588 114.203 207.075 114.39 206.422 114.39H202.712C202.245 114.39 202.012 114.623 202.012 115.09V123.35C202.012 125.31 202.805 126.29 204.392 126.29C204.858 126.29 205.348 126.22 205.862 126.08C206.375 125.94 206.725 125.87 206.912 125.87C207.565 125.87 208.055 126.08 208.382 126.5C208.755 126.92 208.942 127.41 208.942 127.97C208.942 128.39 208.825 128.81 208.592 129.23C208.358 129.603 207.985 129.883 207.472 130.07C206.958 130.257 206.305 130.397 205.512 130.49C204.765 130.63 204.112 130.7 203.552 130.7Z" fill="black"/>
</svg>
